<svg xmlns="http://www.w3.org/2000/svg" viewBox="0 0 1000 1000" fill="currentColor">
<path d="M372.8,218.2l93.2-93.2v444.2c0,19.3,15.7,35,35,35h0.4c19.3,0,35-15.6,35-35V125.8l92.4,92.4c13.7,13.7,35.8,13.7,49.4,0c13.7-13.7,13.7-35.8,0-49.4L529.9,20.5c-8-8-18.8-10.7-29.1-9.4c-10.3-1.4-21.1,1.4-29.1,9.4L323.4,168.8c-13.7,13.7-13.7,35.8,0,49.5C337.1,231.9,359.2,231.9,372.8,218.2z"/>
<path d="M955,288.3H758.8h-49.2h-33.8c-19.3,0-35,15.7-35,35v1.5c0,19.3,15.6,35,35,35h33.8h49.2h128.7c19.3,0,35,15.7,35,35v487c0,19.3-15.6,35-35,35H118.9c-19.3,0-35-15.6-35-35v-487c0-19.3,15.7-35,35-35h122.3h50.4h32.6c19.3,0,35-15.7,35-35v-1.5c0-19.3-15.7-35-35-35h-32.6h-50.4H45c-19.3,0-35,15.7-35,35v631c0,19.3,15.7,35,35,35H955c19.3,0,35-15.6,35-35v-631C990,304,974.3,288.3,955,288.3z"/>
</svg>