<svg xmlns="http://www.w3.org/2000/svg" viewBox="0 0 1000 1000" xml:space="preserve" fill="currentColor">
<path style="stroke:none;stroke-width:1;stroke-dasharray:none;stroke-linecap:butt;stroke-dashoffset:0;stroke-linejoin:miter;stroke-miterlimit:4;is-custom-font:none;font-file-url:none;fill-rule:nonzero;opacity:1" transform="matrix(15.6102 0 0 15.6102 .46 .46)" d="M35.2 32.9c0-1.8-1.4-3.1-3.3-3.1-1.8 0-3.2 1.4-3.2 3.2 0 1.7 1.5 3.2 3.2 3.2.9 0 1.7-.4 2.3-1 .7-.6 1-1.4 1-2.3zM36.8 18l1-.9c2.5-2.2 5.1-4.5 5.2-7.8 0-2.2-1.1-4.5-2.9-6.1-2-1.7-4.7-2.7-7.8-2.7-5.2 0-10.6 3-11.2 8.6 0 .4 0 .5.5.6 1.3.2 2.7.3 4 .5.3 0 .5.1.6.1.3 0 .4-.1.6-.8.8-2.4 2.6-3.9 5-3.9 1.9 0 3.6.9 4.3 2.3.4.9.7 2.3-.6 4.1-.7 1-1.7 1.7-2.6 2.4-1.2.9-2.4 1.8-3.1 3.3-.9 2-.9 4.7-.8 7.1 0 .3.1.4.4.4H34c.4 0 .5-.1.5-.1.1-.1.1-.2.1-.5 0-1.2 0-2.4.1-3.4.1-1.5 1.1-2.4 2.1-3.2zM55.7 44.4l-10.2-3.9c-.8-.2-1.5-.4-2.3-.6l-.8-.2h-1.1v.1c0 .2-.1.3-.1.5-.1.5-.3 1-.4 1.5-.5 2-1.1 4-1.7 5.9-.9 2.9-1.9 5.8-2.9 8.7v.1c0 .1-.1.3-.2.4-.1-.6-.2-1.3-.3-2.1l-.3-2.1c-.4-3.2-.8-6-.8-6.4v-.1c.1-.3.3-.6.4-.9v-.1l.1-.2c.1-.2.1-.3.2-.4 0-.1.1-.1.1-.2 0 0 0-.1.1-.1l.1-.1c.1-.2.3-.5.3-.9 0-.3-.1-.6-.2-.8l-.1-.2v-.1c0-.1-.1-.1-.1-.3-.1-.1-.1-.2-.2-.3-.2-.1-.3-.1-.4-.2h-.2c-.1-.1-.2-.1-.2-.1H30.2s-.1 0-.3.1h-.2c-.1 0-.3.1-.4.2-.1.1-.2.2-.2.3v.1c-.1.1-.1.2-.1.3v.1l-.1.2c-.1.2-.2.5-.2.8 0 .3.1.6.3.9l.1.1v.1c0 .1.1.1.1.2.1.1.1.3.2.4l.1.1v.1c.1.3.3.6.4.9v.1c0 .4-.4 3.1-.8 6.4l-.3 2.1-.3 2.1c-.1-.1-.1-.3-.2-.4v-.1c-1-2.8-2-5.8-2.9-8.7-.6-2-1.1-4-1.7-5.9-.1-.5-.3-1-.4-1.5-.1-.2-.1-.3-.1-.5v-.1h-1.1l-1.2.3c-.8.2-1.5.4-2.3.6L8.3 44.4c-6.1 2-5.8 6.2-5.8 6.2v8c.6 4.8 4.3 4.9 4.5 4.9h50c.2 0 3.9-.1 4.5-4.9v-8s.3-4.1-5.8-6.2z"/></svg>
