<?xml version="1.0" standalone="no"?>
<!DOCTYPE svg PUBLIC "-//W3C//DTD SVG 20010904//EN"
 "http://www.w3.org/TR/2001/REC-SVG-20010904/DTD/svg10.dtd">
<svg version="1.0" xmlns="http://www.w3.org/2000/svg"
 width="512.000000pt" height="512.000000pt" viewBox="0 0 512.000000 512.000000"
 preserveAspectRatio="xMidYMid meet">
<metadata>
Created by potrace 1.14, written by Peter Selinger 2001-2017
</metadata>
<g transform="translate(0.000000,512.000000) scale(0.100000,-0.100000)"
fill="#000000" stroke="none">
<path d="M2379 5116 c-2 -2 -40 -6 -83 -10 -44 -4 -82 -9 -85 -11 -4 -2 -34
-7 -66 -10 -88 -10 -345 -77 -460 -120 -126 -46 -324 -141 -435 -207 -78 -47
-234 -154 -270 -185 -8 -7 -37 -31 -65 -54 -27 -22 -94 -84 -148 -137 -427
-420 -692 -968 -754 -1562 -15 -139 -8 -503 11 -615 3 -16 8 -43 10 -60 13
-90 40 -202 78 -330 138 -461 421 -890 793 -1205 84 -70 88 -74 140 -110 28
-19 52 -38 55 -41 6 -7 105 -70 175 -112 246 -146 593 -271 870 -312 22 -4 51
-8 65 -11 104 -19 469 -26 605 -11 550 58 1106 309 1484 671 83 80 172 172
207 216 16 19 31 37 35 40 3 3 37 48 75 100 213 290 348 580 432 925 32 131
42 189 59 340 10 90 10 408 1 505 -60 599 -333 1163 -764 1582 -143 139 -311
268 -464 360 -88 52 -296 157 -365 185 -181 71 -433 138 -600 158 -27 4 -61 9
-75 11 -29 6 -456 15 -461 10z m316 -860 c64 -10 84 -14 143 -31 71 -21 192
-75 192 -86 0 -5 3 -8 8 -7 10 4 119 -72 165 -114 20 -19 34 -38 30 -43 -5 -4
-3 -5 3 -2 6 4 24 -10 40 -29 16 -20 34 -41 39 -48 23 -25 91 -134 111 -176
85 -183 113 -414 70 -579 -32 -121 -111 -274 -201 -391 -59 -76 -193 -210
-210 -210 -3 0 -16 -9 -28 -21 -12 -11 -60 -41 -107 -66 -145 -78 -172 -117
-176 -252 -3 -101 -12 -161 -25 -161 -5 0 -9 -6 -9 -14 0 -21 -78 -85 -117
-95 -49 -14 -130 -5 -167 18 -87 54 -109 109 -107 260 1 62 6 121 11 131 5 9
7 19 5 22 -8 8 25 100 62 171 49 93 155 200 248 252 161 87 236 150 310 261
22 32 43 61 46 64 21 19 68 179 63 215 -2 11 -5 41 -8 67 -6 50 -53 181 -68
186 -4 2 -8 8 -8 13 0 9 -27 43 -75 93 -200 208 -557 206 -755 -6 -51 -54 -55
-60 -89 -119 -35 -63 -58 -146 -65 -243 -3 -38 -11 -75 -18 -84 -7 -8 -11 -16
-8 -18 11 -6 -43 -66 -82 -90 -55 -35 -137 -37 -199 -5 -90 47 -119 107 -114
235 2 50 6 102 9 116 3 14 9 40 12 59 10 51 61 179 101 249 52 95 169 236 186
225 6 -3 7 -2 4 4 -3 5 6 18 20 29 15 10 31 24 37 29 6 6 41 30 78 54 106 68
248 120 373 137 28 3 51 7 53 8 4 5 177 -2 217 -8z m-24 -2796 c115 -75 133
-229 38 -329 -56 -60 -166 -78 -242 -40 -98 49 -139 149 -105 260 13 46 73
108 120 126 50 19 147 10 189 -17z"/>
</g>
</svg>
